<?xml version="1.0" encoding="UTF-8" standalone="no"?>
<!DOCTYPE svg PUBLIC "-//W3C//DTD SVG 1.1//EN"
 "http://www.w3.org/Graphics/SVG/1.1/DTD/svg11.dtd">
<!-- Generated by graphviz version 2.34.0 (20131113.0532)
 -->
<!-- Title: RoboCup Pages: 1 -->
<svg width="536pt" height="931pt"
 viewBox="0.00 0.00 536.00 930.80" xmlns="http://www.w3.org/2000/svg" xmlns:xlink="http://www.w3.org/1999/xlink">
<g id="graph0" class="graph" transform="scale(1 1) rotate(0) translate(4 926.8)">
<title>RoboCup</title>
<polygon fill="white" stroke="white" points="-4,4 -4,-926.8 532,-926.8 532,4 -4,4"/>
<text text-anchor="middle" x="264" y="-6.8" font-family="Times,serif" font-size="14.00">Information Flow</text>
<g id="clust1" class="cluster"><title>cluster0</title>
<polygon fill="none" stroke="black" points="215,-684.8 215,-914.8 307,-914.8 307,-684.8 215,-684.8"/>
<text text-anchor="middle" x="261" y="-896.8" font-family="Times,serif" font-size="14.00">Field</text>
</g>
<g id="clust2" class="cluster"><title>cluster1</title>
<polygon fill="none" stroke="black" points="230,-282.8 230,-664.8 366,-664.8 366,-282.8 230,-282.8"/>
<text text-anchor="middle" x="298" y="-646.8" font-family="Times,serif" font-size="14.00">Laptop</text>
</g>
<g id="clust3" class="cluster"><title>cluster2</title>
<polygon fill="none" stroke="black" points="8,-32.8 8,-262.8 520,-262.8 520,-32.8 8,-32.8"/>
<text text-anchor="middle" x="264" y="-244.8" font-family="Times,serif" font-size="14.00">Robot</text>
</g>
<!-- cameras -->
<g id="node1" class="node"><title>cameras</title>
<polygon fill="none" stroke="black" points="231.072,-845.8 231.072,-881.8 292.928,-881.8 292.928,-845.8 231.072,-845.8"/>
<text text-anchor="middle" x="262" y="-858.2" font-family="Times,serif" font-size="14.00">cameras</text>
</g>
<!-- ssl_vision -->
<g id="node2" class="node"><title>ssl_vision</title>
<polygon fill="none" stroke="black" points="225.993,-769.8 225.993,-805.8 298.007,-805.8 298.007,-769.8 225.993,-769.8"/>
<text text-anchor="middle" x="262" y="-782.2" font-family="Times,serif" font-size="14.00">ssl_vision</text>
</g>
<!-- cameras&#45;&gt;ssl_vision -->
<g id="edge1" class="edge"><title>cameras&#45;&gt;ssl_vision</title>
<path fill="none" stroke="black" d="M262,-845.637C262,-836.858 262,-825.963 262,-816.067"/>
<polygon fill="black" stroke="black" points="265.5,-815.87 262,-805.87 258.5,-815.87 265.5,-815.87"/>
</g>
<!-- ssl_referee -->
<g id="node3" class="node"><title>ssl_referee</title>
<polygon fill="none" stroke="black" points="222.686,-693.8 222.686,-729.8 299.314,-729.8 299.314,-693.8 222.686,-693.8"/>
<text text-anchor="middle" x="261" y="-706.2" font-family="Times,serif" font-size="14.00">ssl_referee</text>
</g>
<!-- ssl_vision&#45;&gt;ssl_referee -->
<g id="edge2" class="edge"><title>ssl_vision&#45;&gt;ssl_referee</title>
<path fill="none" stroke="black" d="M261.768,-769.637C261.649,-760.858 261.502,-749.963 261.368,-740.067"/>
<polygon fill="black" stroke="black" points="264.866,-739.822 261.231,-729.87 257.866,-739.916 264.866,-739.822"/>
</g>
<!-- gameplay_module -->
<g id="node4" class="node"><title>gameplay_module</title>
<polygon fill="none" stroke="black" points="238.293,-595.8 238.293,-631.8 357.707,-631.8 357.707,-595.8 238.293,-595.8"/>
<text text-anchor="middle" x="298" y="-608.2" font-family="Times,serif" font-size="14.00">gameplay_module</text>
</g>
<!-- ssl_vision&#45;&gt;gameplay_module -->
<g id="edge3" class="edge"><title>ssl_vision&#45;&gt;gameplay_module</title>
<path fill="none" stroke="black" d="M281.405,-769.69C291.429,-759.524 302.656,-745.725 308,-730.8 318.447,-701.624 312.794,-665.79 306.579,-641.736"/>
<polygon fill="black" stroke="black" points="309.891,-640.584 303.833,-631.892 303.148,-642.464 309.891,-640.584"/>
<text text-anchor="middle" x="402.824" y="-706.2" font-family="Times,serif" font-size="14.00">Google Protobuf sent over UDP</text>
</g>
<!-- ssl_referee&#45;&gt;gameplay_module -->
<g id="edge4" class="edge"><title>ssl_referee&#45;&gt;gameplay_module</title>
<path fill="none" stroke="black" d="M267.615,-693.637C273.192,-679.167 281.268,-658.212 287.693,-641.543"/>
<polygon fill="black" stroke="black" points="291.112,-642.404 291.442,-631.814 284.58,-639.887 291.112,-642.404"/>
</g>
<!-- path_planning -->
<g id="node5" class="node"><title>path_planning</title>
<polygon fill="none" stroke="black" points="249.952,-519.8 249.952,-555.8 346.048,-555.8 346.048,-519.8 249.952,-519.8"/>
<text text-anchor="middle" x="298" y="-532.2" font-family="Times,serif" font-size="14.00">path_planning</text>
</g>
<!-- gameplay_module&#45;&gt;path_planning -->
<g id="edge5" class="edge"><title>gameplay_module&#45;&gt;path_planning</title>
<path fill="none" stroke="black" d="M298,-595.637C298,-586.858 298,-575.963 298,-566.067"/>
<polygon fill="black" stroke="black" points="301.5,-565.87 298,-555.87 294.5,-565.87 301.5,-565.87"/>
</g>
<!-- motion_module -->
<g id="node6" class="node"><title>motion_module</title>
<polygon fill="none" stroke="black" points="245.669,-443.8 245.669,-479.8 350.331,-479.8 350.331,-443.8 245.669,-443.8"/>
<text text-anchor="middle" x="298" y="-456.2" font-family="Times,serif" font-size="14.00">motion_module</text>
</g>
<!-- path_planning&#45;&gt;motion_module -->
<g id="edge7" class="edge"><title>path_planning&#45;&gt;motion_module</title>
<path fill="none" stroke="black" d="M298,-519.637C298,-510.858 298,-499.963 298,-490.067"/>
<polygon fill="black" stroke="black" points="301.5,-489.87 298,-479.87 294.5,-489.87 301.5,-489.87"/>
</g>
<!-- radio_module -->
<g id="node7" class="node"><title>radio_module</title>
<polygon fill="none" stroke="black" points="251.121,-367.8 251.121,-403.8 344.879,-403.8 344.879,-367.8 251.121,-367.8"/>
<text text-anchor="middle" x="298" y="-380.2" font-family="Times,serif" font-size="14.00">radio_module</text>
</g>
<!-- motion_module&#45;&gt;radio_module -->
<g id="edge6" class="edge"><title>motion_module&#45;&gt;radio_module</title>
<path fill="none" stroke="black" d="M298,-443.637C298,-434.858 298,-423.963 298,-414.067"/>
<polygon fill="black" stroke="black" points="301.5,-413.87 298,-403.87 294.5,-413.87 301.5,-413.87"/>
</g>
<!-- computer_radio -->
<g id="node8" class="node"><title>computer_radio</title>
<polygon fill="none" stroke="black" points="245.683,-291.8 245.683,-327.8 350.317,-327.8 350.317,-291.8 245.683,-291.8"/>
<text text-anchor="middle" x="298" y="-304.2" font-family="Times,serif" font-size="14.00">computer_radio</text>
</g>
<!-- radio_module&#45;&gt;computer_radio -->
<g id="edge8" class="edge"><title>radio_module&#45;&gt;computer_radio</title>
<path fill="none" stroke="black" d="M298,-367.637C298,-358.858 298,-347.963 298,-338.067"/>
<polygon fill="black" stroke="black" points="301.5,-337.87 298,-327.87 294.5,-337.87 301.5,-337.87"/>
</g>
<!-- robot_radio -->
<g id="node9" class="node"><title>robot_radio</title>
<polygon fill="none" stroke="black" points="258.341,-193.8 258.341,-229.8 339.659,-229.8 339.659,-193.8 258.341,-193.8"/>
<text text-anchor="middle" x="299" y="-206.2" font-family="Times,serif" font-size="14.00">robot_radio</text>
</g>
<!-- computer_radio&#45;&gt;robot_radio -->
<g id="edge9" class="edge"><title>computer_radio&#45;&gt;robot_radio</title>
<path fill="none" stroke="black" d="M298.179,-291.637C298.328,-277.303 298.544,-256.607 298.717,-240.016"/>
<polygon fill="black" stroke="black" points="302.218,-239.85 298.823,-229.814 295.219,-239.777 302.218,-239.85"/>
</g>
<!-- robot_radio&#45;&gt;computer_radio -->
<g id="edge10" class="edge"><title>robot_radio&#45;&gt;computer_radio</title>
<path fill="none" stroke="black" d="M298.823,-229.814C298.674,-244.104 298.458,-264.793 298.285,-281.412"/>
<polygon fill="black" stroke="black" points="294.783,-281.601 298.179,-291.637 301.783,-281.674 294.783,-281.601"/>
</g>
<!-- fpga -->
<g id="node14" class="node"><title>fpga</title>
<polygon fill="none" stroke="black" points="272,-117.8 272,-153.8 326,-153.8 326,-117.8 272,-117.8"/>
<text text-anchor="middle" x="298.938" y="-130.2" font-family="Times,serif" font-size="14.00">fpga</text>
</g>
<!-- robot_radio&#45;&gt;fpga -->
<g id="edge15" class="edge"><title>robot_radio&#45;&gt;fpga</title>
<path fill="none" stroke="black" d="M293.199,-193.637C292.267,-184.858 292.022,-173.963 292.462,-164.067"/>
<polygon fill="black" stroke="black" points="295.969,-164.099 293.209,-153.87 288.988,-163.587 295.969,-164.099"/>
</g>
<!-- ball_sensor -->
<g id="node10" class="node"><title>ball_sensor</title>
<polygon fill="none" stroke="black" points="88.1172,-193.8 88.1172,-229.8 167.883,-229.8 167.883,-193.8 88.1172,-193.8"/>
<text text-anchor="middle" x="128" y="-206.2" font-family="Times,serif" font-size="14.00">ball_sensor</text>
</g>
<!-- ball_sensor&#45;&gt;fpga -->
<g id="edge18" class="edge"><title>ball_sensor&#45;&gt;fpga</title>
<path fill="none" stroke="black" d="M167.661,-193.637C196.256,-181.262 234.563,-164.685 262.424,-152.628"/>
<polygon fill="black" stroke="black" points="264.023,-155.75 271.81,-148.566 261.242,-149.326 264.023,-155.75"/>
</g>
<!-- battery -->
<g id="node11" class="node"><title>battery</title>
<polygon fill="none" stroke="black" stroke-dasharray="1,5" points="185.565,-193.8 185.565,-229.8 240.435,-229.8 240.435,-193.8 185.565,-193.8"/>
<text text-anchor="middle" x="213" y="-206.2" font-family="Times,serif" font-size="14.00">battery</text>
</g>
<!-- omni_wheels -->
<g id="node12" class="node"><title>omni_wheels</title>
<polygon fill="none" stroke="black" stroke-dasharray="1,5" points="15.6724,-117.8 15.6724,-153.8 106.328,-153.8 106.328,-117.8 15.6724,-117.8"/>
<text text-anchor="middle" x="61" y="-130.2" font-family="Times,serif" font-size="14.00">omni_wheels</text>
</g>
<!-- motors -->
<g id="node13" class="node"><title>motors</title>
<polygon fill="none" stroke="black" stroke-dasharray="1,5" points="15.5552,-193.8 15.5552,-229.8 70.4448,-229.8 70.4448,-193.8 15.5552,-193.8"/>
<text text-anchor="middle" x="43" y="-206.2" font-family="Times,serif" font-size="14.00">motors</text>
</g>
<!-- motors&#45;&gt;omni_wheels -->
<g id="edge11" class="edge"><title>motors&#45;&gt;omni_wheels</title>
<path fill="none" stroke="black" d="M47.1748,-193.637C49.333,-184.764 52.0169,-173.731 54.4441,-163.752"/>
<polygon fill="black" stroke="black" points="57.8851,-164.414 56.8478,-153.87 51.0834,-162.759 57.8851,-164.414"/>
</g>
<!-- fpga&#45;&gt;robot_radio -->
<g id="edge16" class="edge"><title>fpga&#45;&gt;robot_radio</title>
<path fill="none" stroke="black" d="M304.791,-153.87C305.728,-162.634 305.978,-173.525 305.543,-183.427"/>
<polygon fill="black" stroke="black" points="302.035,-183.41 304.801,-193.637 309.016,-183.917 302.035,-183.41"/>
</g>
<!-- chipper -->
<g id="node15" class="node"><title>chipper</title>
<polygon fill="none" stroke="black" points="196.01,-41.8 196.01,-77.8 253.99,-77.8 253.99,-41.8 196.01,-41.8"/>
<text text-anchor="middle" x="225" y="-54.2" font-family="Times,serif" font-size="14.00">chipper</text>
</g>
<!-- fpga&#45;&gt;chipper -->
<g id="edge12" class="edge"><title>fpga&#45;&gt;chipper</title>
<path fill="none" stroke="black" d="M281.837,-117.637C272.124,-107.924 259.821,-95.6206 249.147,-84.9472"/>
<polygon fill="black" stroke="black" points="251.616,-82.4662 242.07,-77.87 246.666,-87.416 251.616,-82.4662"/>
</g>
<!-- kicker -->
<g id="node16" class="node"><title>kicker</title>
<polygon fill="none" stroke="black" points="272,-41.8 272,-77.8 326,-77.8 326,-41.8 272,-41.8"/>
<text text-anchor="middle" x="298.99" y="-54.2" font-family="Times,serif" font-size="14.00">kicker</text>
</g>
<!-- fpga&#45;&gt;kicker -->
<g id="edge13" class="edge"><title>fpga&#45;&gt;kicker</title>
<path fill="none" stroke="black" d="M299,-117.637C299,-108.858 299,-97.9626 299,-88.0675"/>
<polygon fill="black" stroke="black" points="302.5,-87.87 299,-77.87 295.5,-87.87 302.5,-87.87"/>
</g>
<!-- dribbler -->
<g id="node17" class="node"><title>dribbler</title>
<polygon fill="none" stroke="black" points="343.841,-41.8 343.841,-77.8 404.159,-77.8 404.159,-41.8 343.841,-41.8"/>
<text text-anchor="middle" x="374" y="-54.2" font-family="Times,serif" font-size="14.00">dribbler</text>
</g>
<!-- fpga&#45;&gt;dribbler -->
<g id="edge14" class="edge"><title>fpga&#45;&gt;dribbler</title>
<path fill="none" stroke="black" d="M316.395,-117.637C326.24,-107.924 338.709,-95.6206 349.527,-84.9472"/>
<polygon fill="black" stroke="black" points="352.039,-87.3849 356.699,-77.87 347.123,-82.4021 352.039,-87.3849"/>
</g>
<!-- capacitor_charge_sensor -->
<g id="node18" class="node"><title>capacitor_charge_sensor</title>
<polygon fill="none" stroke="black" points="357.937,-193.8 357.937,-229.8 512.063,-229.8 512.063,-193.8 357.937,-193.8"/>
<text text-anchor="middle" x="435" y="-206.2" font-family="Times,serif" font-size="14.00">capacitor_charge_sensor</text>
</g>
<!-- capacitor_charge_sensor&#45;&gt;fpga -->
<g id="edge17" class="edge"><title>capacitor_charge_sensor&#45;&gt;fpga</title>
<path fill="none" stroke="black" d="M403.457,-193.637C383.088,-182.554 356.522,-168.099 335.279,-156.54"/>
<polygon fill="black" stroke="black" points="336.692,-153.324 326.236,-151.619 333.347,-159.473 336.692,-153.324"/>
</g>
</g>
</svg>
